<?xml version="1.0" encoding="UTF-8" standalone="no"?>
<!DOCTYPE svg PUBLIC "-//W3C//DTD SVG 1.1//EN" "http://www.w3.org/Graphics/SVG/1.1/DTD/svg11.dtd">
<svg version="1.1" xmlns="http://www.w3.org/2000/svg" xmlns:xlink="http://www.w3.org/1999/xlink" preserveAspectRatio="xMidYMid meet" viewBox="0 0 640 640" width="640" height="640"><defs><path d="M540 320C540 441.42 441.42 540 320 540C198.58 540 100 441.42 100 320C100 198.58 198.58 100 320 100C441.42 100 540 198.58 540 320Z" id="a2DxPPVz7e"></path><clipPath id="clipg4vD4Lua9Q"><use xlink:href="#a2DxPPVz7e" opacity="1"></use></clipPath><path d="M340 40C351.05 40 360 48.95 360 60C360 72 360 88 360 100C360 111.05 351.05 120 340 120C328 120 312 120 300 120C288.95 120 280 111.05 280 100C280 88 280 72 280 60C280 48.95 288.95 40 300 40C312 40 328 40 340 40Z" id="f5oU3LseGY"></path><path d="M340 520C351.05 520 360 528.95 360 540C360 552 360 568 360 580C360 591.05 351.05 600 340 600C328 600 312 600 300 600C288.95 600 280 591.05 280 580C280 568 280 552 280 540C280 528.95 288.95 520 300 520C312 520 328 520 340 520Z" id="e2yigIqyLE"></path><path d="M600 340C600 351.05 591.05 360 580 360C568 360 552 360 540 360C528.95 360 520 351.05 520 340C520 328 520 312 520 300C520 288.95 528.95 280 540 280C552 280 568 280 580 280C591.05 280 600 288.95 600 300C600 312 600 328 600 340Z" id="aDBJKLx2B"></path><path d="M120 340C120 351.05 111.05 360 100 360C88 360 72 360 60 360C48.95 360 40 351.05 40 340C40 328 40 312 40 300C40 288.95 48.95 280 60 280C72 280 88 280 100 280C111.05 280 120 288.95 120 300C120 312 120 328 120 340Z" id="f1zy5LpPKv"></path><path d="M532.13 136.15C539.94 143.96 539.94 156.63 532.13 164.44C523.65 172.92 512.33 184.24 503.85 192.72C496.04 200.53 483.37 200.53 475.56 192.72C467.08 184.24 455.76 172.92 447.28 164.44C439.47 156.63 439.47 143.96 447.28 136.15C455.76 127.67 467.08 116.35 475.56 107.87C483.37 100.06 496.04 100.06 503.85 107.87C512.33 116.35 523.65 127.67 532.13 136.15Z" id="a2Aqd0iMa9"></path><path d="M192.72 475.56C200.53 483.37 200.53 496.04 192.72 503.85C184.24 512.33 172.92 523.65 164.44 532.13C156.63 539.94 143.96 539.94 136.15 532.13C127.67 523.65 116.35 512.33 107.87 503.85C100.06 496.04 100.06 483.37 107.87 475.56C116.35 467.08 127.67 455.76 136.15 447.28C143.96 439.47 156.63 439.47 164.44 447.28C172.92 455.76 184.24 467.08 192.72 475.56Z" id="b867wy1fjq"></path><path d="M503.85 532.13C496.04 539.94 483.37 539.94 475.56 532.13C467.08 523.65 455.76 512.33 447.28 503.85C439.47 496.04 439.47 483.37 447.28 475.56C455.76 467.08 467.08 455.76 475.56 447.28C483.37 439.47 496.04 439.47 503.85 447.28C512.33 455.76 523.65 467.08 532.13 475.56C539.94 483.37 539.94 496.04 532.13 503.85C523.65 512.33 512.33 523.65 503.85 532.13Z" id="a1f96E0jDB"></path><path d="M164.44 192.72C156.63 200.53 143.96 200.53 136.15 192.72C127.67 184.24 116.35 172.92 107.87 164.44C100.06 156.63 100.06 143.96 107.87 136.15C116.35 127.67 127.67 116.35 136.15 107.87C143.96 100.06 156.63 100.06 164.44 107.87C172.92 116.35 184.24 127.67 192.72 136.15C200.53 143.96 200.53 156.63 192.72 164.44C184.24 172.92 172.92 184.24 164.44 192.72Z" id="a1rFs0zWZA"></path></defs><g><g><g><g clip-path="url(#clipg4vD4Lua9Q)"><use xlink:href="#a2DxPPVz7e" opacity="1" fill-opacity="0" stroke="#000000" stroke-width="160" stroke-opacity="1"></use></g></g><g><use xlink:href="#f5oU3LseGY" opacity="1" fill="#000000" fill-opacity="1"></use></g><g><use xlink:href="#e2yigIqyLE" opacity="1" fill="#000000" fill-opacity="1"></use></g><g><use xlink:href="#aDBJKLx2B" opacity="1" fill="#000000" fill-opacity="1"></use></g><g><use xlink:href="#f1zy5LpPKv" opacity="1" fill="#000000" fill-opacity="1"></use></g><g><use xlink:href="#a2Aqd0iMa9" opacity="1" fill="#000000" fill-opacity="1"></use></g><g><use xlink:href="#b867wy1fjq" opacity="1" fill="#000000" fill-opacity="1"></use></g><g><use xlink:href="#a1f96E0jDB" opacity="1" fill="#000000" fill-opacity="1"></use></g><g><use xlink:href="#a1rFs0zWZA" opacity="1" fill="#000000" fill-opacity="1"></use></g></g></g></svg>