<?xml version="1.0" encoding="UTF-8" standalone="no"?>
<!DOCTYPE svg PUBLIC "-//W3C//DTD SVG 1.1//EN" "http://www.w3.org/Graphics/SVG/1.1/DTD/svg11.dtd">
<svg version="1.1" xmlns="http://www.w3.org/2000/svg" xmlns:xlink="http://www.w3.org/1999/xlink" preserveAspectRatio="xMidYMid meet" viewBox="0 0 640 640" width="640" height="640"><defs><path d="M80 280L560 280L560 360L80 360L80 280Z" id="e18YfYLMPv"></path><path d="M161.96 228.76C171.53 234.28 174.8 246.51 169.28 256.08C163.28 266.47 155.28 280.33 149.28 290.72C143.76 300.28 131.53 303.56 121.96 298.04C111.57 292.04 97.71 284.04 87.32 278.04C77.75 272.52 74.48 260.28 80 250.72C86 240.33 94 226.47 100 216.08C105.52 206.51 117.75 203.23 127.32 208.76C137.71 214.76 151.57 222.76 161.96 228.76Z" id="b2mDtOHZEl"></path><path d="M161.96 411.24C171.53 405.72 174.8 393.49 169.28 383.92C163.28 373.53 155.28 359.67 149.28 349.28C143.76 339.72 131.53 336.44 121.96 341.96C111.57 347.96 97.71 355.96 87.32 361.96C77.75 367.48 74.48 379.72 80 389.28C86 399.67 94 413.53 100 423.92C105.52 433.49 117.75 436.77 127.32 431.24C137.71 425.24 151.57 417.24 161.96 411.24Z" id="a1ahzQJq3a"></path><path d="M40 320L100 423.92L169.28 383.92L109.28 280L40 320Z" id="aFA7K64AU"></path><path d="M40 320L100 216.08L169.28 256.08L109.28 360L40 320Z" id="c4FvzBbQdA"></path><path d="M478.04 228.76C468.47 234.28 465.2 246.51 470.72 256.08C476.72 266.47 484.72 280.33 490.72 290.72C496.24 300.28 508.47 303.56 518.04 298.04C528.43 292.04 542.29 284.04 552.68 278.04C562.25 272.52 565.52 260.28 560 250.72C554 240.33 546 226.47 540 216.08C534.48 206.51 522.25 203.23 512.68 208.76C502.29 214.76 488.43 222.76 478.04 228.76Z" id="dLhKDb82S"></path><path d="M478.04 411.24C468.47 405.72 465.2 393.49 470.72 383.92C476.72 373.53 484.72 359.67 490.72 349.28C496.24 339.72 508.47 336.44 518.04 341.96C528.43 347.96 542.29 355.96 552.68 361.96C562.25 367.48 565.52 379.72 560 389.28C554 399.67 546 413.53 540 423.92C534.48 433.49 522.25 436.77 512.68 431.24C502.29 425.24 488.43 417.24 478.04 411.24Z" id="d2gleY5XRz"></path><path d="M600 320L540 423.92L470.72 383.92L530.72 280L600 320Z" id="b4EQ3mc9h8"></path><path d="M600 320L540 216.08L470.72 256.08L530.72 360L600 320Z" id="a3JAD20dJf"></path><path d="M360 80L360 560L280 560L280 80L360 80Z" id="bLNo8HBCf"></path><path d="M411.24 161.96C405.72 171.53 393.49 174.8 383.92 169.28C373.53 163.28 359.67 155.28 349.28 149.28C339.72 143.76 336.44 131.53 341.96 121.96C347.96 111.57 355.96 97.71 361.96 87.32C367.48 77.75 379.72 74.48 389.28 80C399.67 86 413.53 94 423.92 100C433.49 105.52 436.77 117.75 431.24 127.32C425.24 137.71 417.24 151.57 411.24 161.96Z" id="dsqah5xEj"></path><path d="M228.76 161.96C234.28 171.53 246.51 174.8 256.08 169.28C266.47 163.28 280.33 155.28 290.72 149.28C300.28 143.76 303.56 131.53 298.04 121.96C292.04 111.57 284.04 97.71 278.04 87.32C272.52 77.75 260.28 74.48 250.72 80C240.33 86 226.47 94 216.08 100C206.51 105.52 203.23 117.75 208.76 127.32C214.76 137.71 222.76 151.57 228.76 161.96Z" id="bgg7Rjy89"></path><path d="M320 40L216.08 100L256.08 169.28L360 109.28L320 40Z" id="c6nOZmi2k"></path><path d="M320 40L423.92 100L383.92 169.28L280 109.28L320 40Z" id="aywlLKMxn"></path><path d="M411.24 478.04C405.72 468.47 393.49 465.2 383.92 470.72C373.53 476.72 359.67 484.72 349.28 490.72C339.72 496.24 336.44 508.47 341.96 518.04C347.96 528.43 355.96 542.29 361.96 552.68C367.48 562.25 379.72 565.52 389.28 560C399.67 554 413.53 546 423.92 540C433.49 534.48 436.77 522.25 431.24 512.68C425.24 502.29 417.24 488.43 411.24 478.04Z" id="bwuwhmfLv"></path><path d="M228.76 478.04C234.28 468.47 246.51 465.2 256.08 470.72C266.47 476.72 280.33 484.72 290.72 490.72C300.28 496.24 303.56 508.47 298.04 518.04C292.04 528.43 284.04 542.29 278.04 552.68C272.52 562.25 260.28 565.52 250.72 560C240.33 554 226.47 546 216.08 540C206.51 534.48 203.23 522.25 208.76 512.68C214.76 502.29 222.76 488.43 228.76 478.04Z" id="a1G4bsRIiy"></path><path d="M320 600L216.08 540L256.08 470.72L360 530.72L320 600Z" id="e1EGaSHGlm"></path><path d="M320 600L423.92 540L383.92 470.72L280 530.72L320 600Z" id="b1heTMOQyU"></path></defs><g><g><g><use xlink:href="#e18YfYLMPv" opacity="1" fill="#000000" fill-opacity="1"></use></g><g><use xlink:href="#b2mDtOHZEl" opacity="1" fill="#000000" fill-opacity="1"></use></g><g><use xlink:href="#a1ahzQJq3a" opacity="1" fill="#000000" fill-opacity="1"></use></g><g><use xlink:href="#aFA7K64AU" opacity="1" fill="#000000" fill-opacity="1"></use></g><g><use xlink:href="#c4FvzBbQdA" opacity="1" fill="#000000" fill-opacity="1"></use></g><g><use xlink:href="#dLhKDb82S" opacity="1" fill="#000000" fill-opacity="1"></use></g><g><use xlink:href="#d2gleY5XRz" opacity="1" fill="#000000" fill-opacity="1"></use></g><g><use xlink:href="#b4EQ3mc9h8" opacity="1" fill="#000000" fill-opacity="1"></use></g><g><use xlink:href="#a3JAD20dJf" opacity="1" fill="#000000" fill-opacity="1"></use></g><g><use xlink:href="#bLNo8HBCf" opacity="1" fill="#000000" fill-opacity="1"></use></g><g><use xlink:href="#dsqah5xEj" opacity="1" fill="#000000" fill-opacity="1"></use></g><g><use xlink:href="#bgg7Rjy89" opacity="1" fill="#000000" fill-opacity="1"></use></g><g><use xlink:href="#c6nOZmi2k" opacity="1" fill="#000000" fill-opacity="1"></use></g><g><use xlink:href="#aywlLKMxn" opacity="1" fill="#000000" fill-opacity="1"></use></g><g><use xlink:href="#bwuwhmfLv" opacity="1" fill="#000000" fill-opacity="1"></use></g><g><use xlink:href="#a1G4bsRIiy" opacity="1" fill="#000000" fill-opacity="1"></use></g><g><use xlink:href="#e1EGaSHGlm" opacity="1" fill="#000000" fill-opacity="1"></use></g><g><use xlink:href="#b1heTMOQyU" opacity="1" fill="#000000" fill-opacity="1"></use></g></g></g></svg>