<?xml version="1.0" encoding="UTF-8" standalone="no"?>
<!DOCTYPE svg PUBLIC "-//W3C//DTD SVG 1.1//EN" "http://www.w3.org/Graphics/SVG/1.1/DTD/svg11.dtd">
<svg version="1.1" xmlns="http://www.w3.org/2000/svg" xmlns:xlink="http://www.w3.org/1999/xlink" preserveAspectRatio="xMidYMid meet" viewBox="0 0 640 640" width="640" height="640"><defs><path d="M40 67L100 67L100 280L40 280L40 67Z" id="d1Cij5bOPt"></path><path d="M70 40L280 40L280 100L70 100L70 40Z" id="a590Qd1IC"></path><path d="M40 573L100 573L100 360L40 360L40 573Z" id="buQYecwa"></path><path d="M69 600L280 600L280 540L69 540L69 600Z" id="b2REC3zlzn"></path><path d="M600 71L540 71L540 280L600 280L600 71Z" id="f1Vp2qox5"></path><path d="M570 40L360 40L360 100L570 100L570 40Z" id="a1xTVBZ8Se"></path><path d="M600 569L540 569L540 360L600 360L600 569Z" id="c1M7xExNKo"></path><path d="M572 600L360 600L360 540L572 540L572 600Z" id="bAoRibcWu"></path><path d="M100 70C100 86.56 86.56 100 70 100C53.44 100 40 86.56 40 70C40 53.44 53.44 40 70 40C86.56 40 100 53.44 100 70Z" id="b3JDHVPY6T"></path><path d="M600 70C600 86.56 586.56 100 570 100C553.44 100 540 86.56 540 70C540 53.44 553.44 40 570 40C586.56 40 600 53.44 600 70Z" id="b3SkcPpVkn"></path><path d="M100 570C100 586.56 86.56 600 70 600C53.44 600 40 586.56 40 570C40 553.44 53.44 540 70 540C86.56 540 100 553.44 100 570Z" id="cyYldZZX7"></path><path d="M600 570C600 553.44 586.56 540 570 540C553.44 540 540 553.44 540 570C540 586.56 553.44 600 570 600C586.56 600 600 586.56 600 570Z" id="b2dxnjFxt1"></path></defs><g><g><g><use xlink:href="#d1Cij5bOPt" opacity="1" fill="#000000" fill-opacity="1"></use></g><g><use xlink:href="#a590Qd1IC" opacity="1" fill="#000000" fill-opacity="1"></use></g><g><use xlink:href="#buQYecwa" opacity="1" fill="#000000" fill-opacity="1"></use></g><g><use xlink:href="#b2REC3zlzn" opacity="1" fill="#000000" fill-opacity="1"></use></g><g><use xlink:href="#f1Vp2qox5" opacity="1" fill="#000000" fill-opacity="1"></use></g><g><use xlink:href="#a1xTVBZ8Se" opacity="1" fill="#000000" fill-opacity="1"></use></g><g><use xlink:href="#c1M7xExNKo" opacity="1" fill="#000000" fill-opacity="1"></use></g><g><use xlink:href="#bAoRibcWu" opacity="1" fill="#000000" fill-opacity="1"></use></g><g><use xlink:href="#b3JDHVPY6T" opacity="1" fill="#000000" fill-opacity="1"></use></g><g><use xlink:href="#b3SkcPpVkn" opacity="1" fill="#000000" fill-opacity="1"></use></g><g><use xlink:href="#cyYldZZX7" opacity="1" fill="#000000" fill-opacity="1"></use></g><g><use xlink:href="#b2dxnjFxt1" opacity="1" fill="#000000" fill-opacity="1"></use></g></g></g></svg>